HIERARCHY
ROOT Hips
{
	OFFSET 0.000000 0.000000 0.000000
	CHANNELS 6 Xposition Yposition Zposition Xrotation Yrotation Zrotation
	JOINT LeftUpLeg_virtual
	{
		OFFSET 0.000000 0.000000 0.000000
		CHANNELS 3 Xrotation Yrotation Zrotation
		JOINT LeftUpLeg
		{
			OFFSET 11.394100 -6.187798 -0.413800
			CHANNELS 3 Xrotation Yrotation Zrotation
			JOINT LeftLeg
			{
				OFFSET 0.430247 -32.302673 3.732800
				CHANNELS 3 Xrotation Yrotation Zrotation
				JOINT LeftFoot
				{
					OFFSET -0.430247 -48.264931 -6.423300
					CHANNELS 3 Xrotation Yrotation Zrotation
					JOINT LeftToeBase
					{
						OFFSET 4.230900 -16.068199 23.438400
						CHANNELS 3 Xrotation Yrotation Zrotation
						JOINT LeftToe_End
						{
							OFFSET 4.510700 0.695400 19.974600
							CHANNELS 3 Xrotation Yrotation Zrotation
							End Site
							{
								OFFSET 0 0 0
							}
						}
					}
				}
			}
		}
	}
	JOINT RightUpLeg_virtual
	{
		OFFSET 0.000000 0.000000 0.000000
		CHANNELS 3 Xrotation Yrotation Zrotation
		JOINT RightUpLeg
		{
			OFFSET -11.333700 -6.187798 -0.413800
			CHANNELS 3 Xrotation Yrotation Zrotation
			JOINT RightLeg
			{
				OFFSET -0.430392 -32.302628 3.733000
				CHANNELS 3 Xrotation Yrotation Zrotation
				JOINT RightFoot
				{
					OFFSET 0.430392 -48.264973 -6.423500
					CHANNELS 3 Xrotation Yrotation Zrotation
					JOINT RightToeBase
					{
						OFFSET -4.230900 -16.068199 23.438400
						CHANNELS 3 Xrotation Yrotation Zrotation
						JOINT RightToe_End
						{
							OFFSET -4.510700 0.695400 19.974600
							CHANNELS 3 Xrotation Yrotation Zrotation
							End Site
							{
								OFFSET 0 0 0
							}
						}
					}
				}
			}
		}
	}
	JOINT Spine_virtual
	{
		OFFSET 0.000000 0.000000 0.000000
		CHANNELS 3 Xrotation Yrotation Zrotation
		JOINT Spine
		{
			OFFSET -0.002400 12.777504 0.315300
			CHANNELS 3 Xrotation Yrotation Zrotation
			JOINT Spine1
			{
				OFFSET -0.002067 5.816869 0.032633
				CHANNELS 3 Xrotation Yrotation Zrotation
				JOINT Spine1_split
				{
					OFFSET -0.002067 5.816869 0.032633
					CHANNELS 3 Xrotation Yrotation Zrotation
					JOINT Spine2
					{
						OFFSET -0.002067 5.816869 0.032633
						CHANNELS 3 Xrotation Yrotation Zrotation
						JOINT Neck_virtual
						{
							OFFSET 0.000000 0.000000 0.000000
							CHANNELS 3 Xrotation Yrotation Zrotation
							JOINT Neck
							{
								OFFSET -0.003700 21.199493 -0.826900
								CHANNELS 3 Xrotation Yrotation Zrotation
								JOINT Head
								{
									OFFSET 0.000000 20.442200 4.834800
									CHANNELS 3 Xrotation Yrotation Zrotation
									JOINT HeadTop_End
									{
										OFFSET 0.000000 34.668396 4.968400
										CHANNELS 3 Xrotation Yrotation Zrotation
										End Site
										{
											OFFSET 0 0 0
										}
									}
								}
							}
						}
						JOINT LeftShoulder_virtual
						{
							OFFSET 0.000000 0.000000 0.000000
							CHANNELS 3 Xrotation Yrotation Zrotation
							JOINT LeftShoulder
							{
								OFFSET 3.288150 8.794197 -1.372250
								CHANNELS 3 Xrotation Yrotation Zrotation
								JOINT LeftShoulder_split
								{
									OFFSET 3.288150 8.794197 -1.372250
									CHANNELS 3 Xrotation Yrotation Zrotation
									JOINT LeftArm
									{
										OFFSET 11.953299 -2.279007 -0.146200
										CHANNELS 3 Xrotation Yrotation Zrotation
										JOINT LeftForeArm
										{
											OFFSET 18.448900 0.000000 0.000000
											CHANNELS 3 Xrotation Yrotation Zrotation
											JOINT LeftHand
											{
												OFFSET 29.527798 0.000000 0.000000
												CHANNELS 3 Xrotation Yrotation Zrotation
												End Site
												{
													OFFSET 0 0 0
												}
											}
										}
									}
								}
							}
						}
						JOINT RightShoulder_virtual
						{
							OFFSET 0.000000 0.000000 0.000000
							CHANNELS 3 Xrotation Yrotation Zrotation
							JOINT RightShoulder
							{
								OFFSET -3.249400 8.794197 -1.372250
								CHANNELS 3 Xrotation Yrotation Zrotation
								JOINT RightShoulder_split
								{
									OFFSET -3.249400 8.794197 -1.372250
									CHANNELS 3 Xrotation Yrotation Zrotation
									JOINT RightArm
									{
										OFFSET -11.953299 -2.279007 -0.146200
										CHANNELS 3 Xrotation Yrotation Zrotation
										JOINT RightForeArm
										{
											OFFSET -18.448900 0.000000 0.000000
											CHANNELS 3 Xrotation Yrotation Zrotation
											JOINT RightHand
											{
												OFFSET -29.527802 0.000000 0.000000
												CHANNELS 3 Xrotation Yrotation Zrotation
												End Site
												{
													OFFSET 0 0 0
												}
											}
										}
									}
								}
							}
						}
					}
				}
			}
		}
	}
}
MOTION
Frames: 9
Frame Time: 0.03333333
22.857370 92.426262 6.373764 0.000000 0.000000 0.000000 157.151410 -66.231880 163.680333 -58.213573 41.017366 49.733517 37.802105 -2.671367 -4.906310 5.445508 8.051431 -1.500357 2.228505 5.337807 -10.856074 0.000000 0.000000 0.000000 158.708625 -66.267629 166.673978 -45.134440 -17.391758 -28.936243 30.364832 -6.430463 -1.480577 -9.357733 -2.792064 9.605757 1.552359 3.829786 1.502938 0.000000 0.000000 0.000000 149.398080 -69.367374 155.594305 10.799697 -2.949897 -0.477012 5.412621 -3.172743 -2.766665 0.285461 -1.559759 0.941352 0.000000 0.000000 0.000000 -1.615906 -4.902946 -1.933374 4.545152 14.451072 -2.329093 -15.762026 10.940932 -3.184287 0.000000 0.000000 0.000000 -1.689376 -5.445607 -1.602769 -1.147130 -9.524121 -5.532519 0.362246 0.697575 0.767982 -25.031977 -14.345511 -47.938837 -14.547897 -28.182530 -14.713395 0.000000 0.000000 0.000000 -3.572866 -5.726206 -1.947443 -5.574186 19.021300 3.724711 1.209785 -3.434077 0.203786 -12.430465 -10.880717 60.329982 10.662448 38.149202 -2.091212 0.000000 0.000000 0.000000 
23.164707 92.229645 4.982563 0.000000 0.000000 0.000000 157.178403 -64.254117 163.822921 -61.686075 39.474597 52.285436 39.988411 -5.395420 -4.731304 7.808337 6.620507 1.500652 1.726020 5.876450 -13.464386 0.000000 0.000000 0.000000 159.249358 -63.625200 167.445106 -46.736696 -17.053215 -28.236190 31.481291 -5.552914 -1.083150 -10.963148 -1.406943 9.622454 1.458051 4.159620 1.667571 0.000000 0.000000 0.000000 150.138841 -66.806176 156.559848 11.041347 -2.878471 -0.769451 4.715627 -2.231187 -2.881576 0.444585 -1.808076 0.780613 0.000000 0.000000 0.000000 -2.386113 -3.885231 -2.013196 3.827896 16.061839 -3.353132 -16.184572 12.513116 -3.264592 0.000000 0.000000 0.000000 -2.429713 -4.375707 -1.706447 -0.955115 -9.033295 -5.549616 0.446183 0.527705 0.418616 -25.365284 -15.997073 -48.052314 -15.713403 -30.646212 -14.930461 0.000000 0.000000 0.000000 -4.196395 -4.638799 -2.044888 -5.704752 18.803326 3.692005 1.337573 -3.251622 -0.094548 -11.831613 -11.142476 60.638672 12.812271 38.047552 -3.453610 0.000000 0.000000 0.000000 
23.350868 91.993309 3.897926 0.000000 0.000000 0.000000 157.364676 -62.534337 164.053931 -64.295767 38.187656 53.834308 41.148430 -8.195956 -4.304642 10.261552 5.355185 4.375913 0.988663 5.937687 -15.055468 0.000000 0.000000 0.000000 159.714248 -61.210366 168.077609 -47.707246 -16.546130 -27.539635 32.877908 -4.691464 -0.762390 -13.009935 -0.148141 9.703873 1.772716 4.298742 1.979906 0.000000 0.000000 0.000000 150.918549 -64.586323 157.549952 11.357237 -2.761665 -0.915304 4.066409 -1.315390 -3.075743 0.617230 -2.089083 0.710176 0.000000 0.000000 0.000000 -3.150681 -2.895018 -2.148989 3.287202 17.562834 -4.174574 -16.292962 13.896297 -3.261908 0.000000 0.000000 0.000000 -3.138154 -3.342332 -1.879902 -0.797881 -8.714042 -5.457338 0.791303 0.423015 0.161659 -25.718563 -16.179420 -48.378281 -17.029304 -33.148472 -15.320109 0.000000 0.000000 0.000000 -4.763773 -3.575429 -2.204510 -5.754939 18.571795 3.530774 1.371296 -3.067644 -0.335948 -10.909400 -11.431426 60.843872 14.626620 37.971952 -4.624428 0.000000 0.000000 0.000000 
23.368408 91.740273 2.902790 0.000000 0.000000 0.000000 157.638621 -61.043928 164.268344 -66.162793 37.186658 54.628922 40.995379 -10.955095 -3.856950 12.408144 4.169362 6.584051 0.905338 5.379117 -15.591645 0.000000 0.000000 0.000000 160.086834 -59.070461 168.517159 -47.939110 -15.887864 -26.835955 34.252384 -3.991878 -0.537017 -15.623132 0.915104 9.542624 2.940883 4.320299 2.269888 0.000000 0.000000 0.000000 151.887397 -62.607843 158.660978 11.761843 -2.636462 -0.897651 3.471451 -0.467095 -3.319112 0.696590 -2.336736 0.697476 0.000000 0.000000 0.000000 -3.898994 -1.973286 -2.333960 2.937833 18.889008 -4.798096 -16.094530 15.067968 -3.142760 0.000000 0.000000 0.000000 -3.811631 -2.372587 -2.106180 -0.694078 -8.533574 -5.346083 1.295968 0.371987 -0.011546 -25.998898 -15.016483 -48.706810 -18.377307 -35.493761 -15.804641 0.000000 0.000000 0.000000 -5.287734 -2.587057 -2.428631 -5.722704 18.306524 3.279464 1.330700 -3.058395 -0.516624 -9.791810 -11.670625 60.801490 15.996880 37.921159 -5.519615 0.000000 0.000000 0.000000 
23.141312 91.501297 2.067253 0.000000 0.000000 0.000000 158.103211 -59.648711 164.605619 -67.658870 36.103656 54.916285 40.107745 -13.620605 -3.519758 14.767415 2.947197 7.440057 1.952527 4.160247 -15.071350 0.000000 0.000000 0.000000 160.403605 -57.223670 168.780941 -47.614529 -14.978885 -26.149224 35.487337 -3.396680 -0.401167 -18.319759 1.855414 9.238224 4.397949 4.291014 2.479694 0.000000 0.000000 0.000000 152.935326 -60.817855 159.677146 12.245797 -2.510402 -0.718351 2.932370 0.305203 -3.588126 0.607701 -2.432295 0.926406 0.000000 0.000000 0.000000 -4.588318 -1.127131 -2.547212 2.777722 19.991803 -5.262766 -15.648631 15.964018 -2.878148 0.000000 0.000000 0.000000 -4.461865 -1.470187 -2.365565 -0.651009 -8.493718 -5.294474 1.958313 0.385820 -0.102208 -26.063633 -12.906443 -48.958980 -19.632373 -37.502328 -16.261116 0.000000 0.000000 0.000000 -5.772300 -1.683027 -2.697365 -5.647934 18.040007 3.053308 1.204229 -3.215223 -0.649825 -8.507131 -11.768765 60.491161 16.790517 37.736829 -6.044584 0.000000 0.000000 0.000000 
22.652040 91.306046 1.244282 0.000000 0.000000 0.000000 158.777583 -58.257661 165.095959 -68.725814 34.671512 54.626087 39.244962 -16.098600 -3.235969 17.326030 1.702333 6.903916 2.969852 2.512113 -13.093193 0.000000 0.000000 0.000000 160.807460 -55.471286 169.046198 -47.147232 -13.884488 -25.613326 36.435979 -2.826809 -0.338774 -20.233344 2.709483 9.126162 5.223238 4.215907 2.540396 0.000000 0.000000 0.000000 154.125227 -59.056821 160.678097 12.780789 -2.366694 -0.428297 2.445940 1.036623 -3.857027 0.452948 -2.549346 1.155168 0.000000 0.000000 0.000000 -5.187384 -0.334799 -2.764994 2.805604 20.817860 -5.679181 -15.076685 16.512670 -2.474757 0.000000 0.000000 0.000000 -5.084898 -0.614761 -2.637931 -0.658624 -8.561687 -5.378172 2.731269 0.279809 -0.155639 -25.765111 -10.374020 -49.035960 -20.656264 -39.103895 -16.603217 0.000000 0.000000 0.000000 -6.247618 -0.849820 -2.975185 -5.534879 17.790607 2.929091 0.933787 -3.445356 -0.659090 -7.023099 -11.796487 60.001696 16.904793 37.133341 -6.119729 0.000000 0.000000 0.000000 
21.849005 91.128830 0.503803 0.000000 0.000000 0.000000 159.721529 -56.678037 165.844083 -69.081571 33.099629 53.592123 38.859712 -17.737562 -2.976485 18.780461 0.891876 6.028554 2.693527 0.716480 -9.689304 0.000000 0.000000 0.000000 161.452394 -53.677958 169.547944 -46.777350 -12.712016 -25.203116 37.191661 -2.201918 -0.339978 -20.989955 3.504944 9.321900 5.228307 4.083406 2.480921 0.000000 0.000000 0.000000 155.418222 -57.271935 161.691055 13.312901 -2.167860 -0.106678 2.004427 1.767647 -4.100782 0.239326 -2.607684 1.370723 0.000000 0.000000 0.000000 -5.677457 0.441476 -2.958211 2.971477 21.336213 -6.141247 -14.527983 16.668974 -1.935182 0.000000 0.000000 0.000000 -5.675526 0.230824 -2.899586 -0.696781 -8.698365 -5.581424 3.501594 0.070917 -0.191456 -24.896535 -7.892331 -48.923689 -21.350978 -40.281071 -16.766398 0.000000 0.000000 0.000000 -6.721624 -0.048523 -3.235646 -5.377666 17.556784 2.911629 0.685921 -3.530411 -0.666212 -5.302184 -11.824069 59.514676 16.307615 36.013019 -5.769920 0.000000 0.000000 0.000000 
20.788973 90.920540 -0.131325 0.000000 0.000000 0.000000 160.891677 -54.931469 166.860415 -68.750259 31.696586 51.829948 38.960468 -18.053336 -2.685443 18.161063 0.921953 5.630049 1.217633 -1.176239 -5.613186 0.000000 0.000000 0.000000 162.297644 -51.809799 170.278091 -46.472412 -11.603799 -24.866931 37.816524 -1.615225 -0.381892 -21.033783 4.200546 9.628118 4.781512 3.891896 2.391916 0.000000 0.000000 0.000000 156.712858 -55.406136 162.691964 13.806191 -1.884571 0.115952 1.594841 2.541980 -4.299220 0.045285 -2.741156 1.519604 0.000000 0.000000 0.000000 -6.065169 1.236431 -3.095553 3.257924 21.510936 -6.719539 -14.148819 16.465945 -1.285619 0.000000 0.000000 0.000000 -6.251673 1.087613 -3.126709 -0.741073 -8.862908 -5.830895 4.241346 -0.221451 -0.154016 -23.486181 -5.776136 -48.690411 -21.641939 -40.972037 -16.696276 0.000000 0.000000 0.000000 -7.205558 0.760964 -3.441416 -5.177444 17.325425 2.940271 0.407923 -3.277984 -0.749180 -3.371540 -12.008257 59.164547 15.065893 34.571805 -5.119585 0.000000 0.000000 0.000000 
19.489687 90.635857 -0.589298 0.000000 0.000000 0.000000 162.094869 -53.015986 167.976864 -67.781233 30.633573 49.452567 39.196994 -17.354010 -2.293500 15.600528 1.592738 5.604614 -0.422456 -3.091446 -1.928801 0.000000 0.000000 0.000000 163.276041 -49.909627 171.213472 -46.120873 -10.746191 -24.662688 38.534886 -1.301030 -0.422505 -20.777816 4.637437 9.753271 4.193864 3.648676 2.298272 0.000000 0.000000 0.000000 157.932907 -53.521567 163.759673 14.222439 -1.529516 0.114853 1.197997 3.355158 -4.429649 -0.021761 -2.965528 1.528776 0.000000 0.000000 0.000000 -6.396236 2.051857 -3.147895 3.644130 21.352399 -7.469534 -14.020459 15.957905 -0.566856 0.000000 0.000000 0.000000 -6.823557 1.957691 -3.273188 -0.777405 -8.971848 -6.037143 4.853690 -0.404286 -0.054912 -21.638065 -4.202132 -48.400899 -21.602483 -41.298800 -16.457534 0.000000 0.000000 0.000000 -7.688743 1.577042 -3.556197 -4.930372 17.032313 2.885798 0.203550 -2.698563 -0.825538 -1.288397 -12.528162 59.078138 13.280677 33.234833 -4.341258 0.000000 0.000000 0.000000 
